<?xml version="1.0" encoding="utf-8"?>
<svg width="695.5px" height="406px" viewBox="0 0 695.5 406" version="1.1" xmlns:xlink="http://www.w3.org/1999/xlink" xmlns="http://www.w3.org/2000/svg">
  <g id="rsFilled-2" transform="translate(7.5 7.5)">
    <path d="M363 391L363 238L408 238L467 160L397 160C397 160 382.273 159.216 372.5 147.5C362.727 135.784 363 127 363 127L363 38C363 38 362.607 21.893 372.5 11C382.393 0.106934 397 0 397 0L680.5 0L588 114.5L588 60L434 60L434 101.5L520.5 101.5C520.5 101.5 556.989 99.1219 560.5 127C562.533 143.141 549 160 549 160L363 391Z" id="s" fill="#FFFFFF" fill-rule="evenodd" stroke="#FFFFFF" stroke-width="15" stroke-linecap="round" stroke-linejoin="round" />
    <path d="M317.5 391L317.5 238L272.5 238L213.5 160L283.5 160C283.5 160 298.227 159.216 308 147.5C317.773 135.784 317.5 127 317.5 127L317.5 38C317.5 38 317.893 21.893 308 11C298.107 0.106934 283.5 0 283.5 0L0 0L92.5001 114.5L92.5001 60L246.5 60L246.5 101.5L160 101.5C160 101.5 123.511 99.1219 120 127C117.967 143.141 131.5 160 131.5 160L317.5 391Z" id="r" fill="#FFFFFF" fill-rule="evenodd" stroke="#FFFFFF" stroke-width="15" stroke-linecap="round" stroke-linejoin="round" />
  </g>
</svg>